<svg width="322" height="111" viewBox="0 0 322 111" fill="none" xmlns="http://www.w3.org/2000/svg">
<path d="M260.318 22.8128C260.318 22.8128 265.762 22.8393 274.999 18.999C284.236 15.1588 291.022 24.8509 281.408 31.6171C271.795 38.3833 258.924 37.4689 258.924 37.4689" stroke="black" stroke-width="6"/>
<path d="M260.405 22.8128C260.405 22.8128 254.144 22.8393 244.907 18.999C235.67 15.1588 228.884 24.8509 238.498 31.6171C248.112 38.3833 260.982 37.4689 260.982 37.4689" stroke="black" stroke-width="6"/>
<path d="M229.83 31.4983C216.236 46.2422 239.16 49.693 247.279 46.2422C255.398 42.7914 258.924 44.3359 258.924 44.3359" stroke="black" stroke-width="6"/>
<path d="M290.456 31.4983C304.05 46.2422 281.126 49.693 273.007 46.2422C264.888 42.7914 261.362 44.3359 261.362 44.3359" stroke="black" stroke-width="6"/>
<path d="M298.678 46.265C302.898 60.2829 293.254 63.999 271.901 58.5548C267.403 57.7643 264.882 57.8467 260.384 58.5548" stroke="black" stroke-width="6"/>
<path d="M221.528 46.265C217.307 60.2829 226.952 63.999 248.305 58.5548C252.803 57.7643 255.324 57.8467 259.822 58.5548" stroke="black" stroke-width="6"/>
<path d="M300.755 63.2702C305.26 74.48 295.076 78.4699 281.562 73.15C268.048 67.8301 267.796 69.0868 259.822 69.9201" stroke="black" stroke-width="6"/>
<path d="M219.45 63.2702C214.946 74.48 225.13 78.4699 238.644 73.15C252.158 67.8301 252.41 69.0868 260.384 69.9201" stroke="black" stroke-width="6"/>
<path d="M300.51 79.591C297.332 95.791 286.948 91.5779 268.282 82.7247H258.924" stroke="black" stroke-width="6"/>
<path d="M219.397 79.591C222.575 95.791 232.958 91.5779 251.624 82.7247H260.982" stroke="black" stroke-width="6"/>
<path d="M245.704 60.5346C249.671 80.531 252.232 100.273 260.271 100.273C268.31 100.273 271.578 79.0123 274.815 60.5346C278.28 36.2563 268.298 27.8188 260.26 27.8188C252.221 27.8188 243.081 35.9899 245.704 60.5346Z" fill="#31BBC7"/>
<path d="M230.108 99.2936C234.87 109.67 245.273 110.174 251.202 99.2936C257.131 88.4131 260.383 76.7625 260.383 76.7625C249.324 53.4454 251.734 39.2268 260.384 39.2268" stroke="black" stroke-width="6"/>
<path d="M290.66 99.2936C285.898 109.67 275.495 110.174 269.566 99.2936C263.637 88.4131 260.384 76.7625 260.384 76.7625C271.443 53.4454 269.034 39.2268 260.384 39.2268" stroke="black" stroke-width="6"/>
<path d="M317.941 63.2702L201.703 63.2702" stroke="white" stroke-width="7" stroke-linecap="round"/>
<path d="M11.5795 6.32013H33.7445C38.8578 6.32013 42.6928 7.42513 45.2495 9.63513C47.8061 11.8451 49.0845 14.9218 49.0845 18.8651C49.0845 21.0751 48.7595 22.9168 48.1095 24.3901C47.4595 25.8201 46.7011 26.9901 45.8345 27.9001C44.9678 28.7668 44.1011 29.3951 43.2345 29.7851C42.4111 30.1751 41.8045 30.4351 41.4145 30.5651V30.6951C42.1078 30.7818 42.8445 30.9985 43.6245 31.3451C44.4478 31.6918 45.2061 32.2551 45.8995 33.0351C46.5928 33.7718 47.1561 34.7468 47.5895 35.9601C48.0661 37.1735 48.3045 38.6901 48.3045 40.5101C48.3045 43.2401 48.4995 45.7318 48.8895 47.9851C49.3228 50.1951 49.9728 51.7768 50.8395 52.7301H42.1295C41.5228 51.7335 41.1545 50.6285 41.0245 49.4151C40.9378 48.2018 40.8945 47.0318 40.8945 45.9051C40.8945 43.7818 40.7645 41.9618 40.5045 40.4451C40.2445 38.8851 39.7678 37.6068 39.0745 36.6101C38.3811 35.5701 37.4278 34.8118 36.2145 34.3351C35.0445 33.8585 33.5278 33.6201 31.6645 33.6201H19.7045V52.7301H11.5795V6.32013ZM19.7045 27.4451H33.0295C35.6295 27.4451 37.6011 26.8385 38.9445 25.6251C40.2878 24.3685 40.9595 22.5051 40.9595 20.0351C40.9595 18.5618 40.7428 17.3701 40.3095 16.4601C39.8761 15.5068 39.2695 14.7701 38.4895 14.2501C37.7528 13.7301 36.8861 13.3835 35.8895 13.2101C34.9361 13.0368 33.9395 12.9501 32.8995 12.9501H19.7045V27.4451ZM79.3811 32.9701C79.2944 31.8001 79.0344 30.6735 78.6011 29.5901C78.2111 28.5068 77.6477 27.5751 76.9111 26.7951C76.2177 25.9718 75.3511 25.3218 74.3111 24.8451C73.3144 24.3251 72.1877 24.0651 70.9311 24.0651C69.6311 24.0651 68.4394 24.3035 67.3561 24.7801C66.3161 25.2135 65.4061 25.8418 64.6261 26.6651C63.8894 27.4451 63.2827 28.3768 62.8061 29.4601C62.3727 30.5435 62.1344 31.7135 62.0911 32.9701H79.3811ZM62.0911 37.8451C62.0911 39.1451 62.2644 40.4018 62.6111 41.6151C63.0011 42.8285 63.5644 43.8901 64.3011 44.8001C65.0377 45.7101 65.9694 46.4468 67.0961 47.0101C68.2227 47.5301 69.5661 47.7901 71.1261 47.7901C73.2927 47.7901 75.0261 47.3351 76.3261 46.4251C77.6694 45.4718 78.6661 44.0635 79.3161 42.2001H86.3361C85.9461 44.0201 85.2744 45.6451 84.3211 47.0751C83.3677 48.5051 82.2194 49.7185 80.8761 50.7151C79.5327 51.6685 78.0161 52.3835 76.3261 52.8601C74.6794 53.3801 72.9461 53.6401 71.1261 53.6401C68.4827 53.6401 66.1427 53.2068 64.1061 52.3401C62.0694 51.4735 60.3361 50.2601 58.9061 48.7001C57.5194 47.1401 56.4577 45.2768 55.7211 43.1101C55.0277 40.9435 54.6811 38.5601 54.6811 35.9601C54.6811 33.5768 55.0494 31.3235 55.7861 29.2001C56.5661 27.0335 57.6494 25.1485 59.0361 23.5451C60.4661 21.8985 62.1777 20.5985 64.1711 19.6451C66.1644 18.6918 68.4177 18.2151 70.9311 18.2151C73.5744 18.2151 75.9361 18.7785 78.0161 19.9051C80.1394 20.9885 81.8944 22.4401 83.2811 24.2601C84.6677 26.0801 85.6644 28.1818 86.2711 30.5651C86.9211 32.9051 87.0944 35.3318 86.7911 37.8451H62.0911ZM92.4242 6.32013H99.8342V23.5451H99.9642C100.874 22.0285 102.218 20.7718 103.994 19.7751C105.814 18.7351 107.829 18.2151 110.039 18.2151C113.723 18.2151 116.626 19.1685 118.749 21.0751C120.873 22.9818 121.934 25.8418 121.934 29.6551V52.7301H114.524V31.6051C114.438 28.9618 113.874 27.0551 112.834 25.8851C111.794 24.6718 110.169 24.0651 107.959 24.0651C106.703 24.0651 105.576 24.3035 104.579 24.7801C103.583 25.2135 102.738 25.8418 102.044 26.6651C101.351 27.4451 100.809 28.3768 100.419 29.4601C100.029 30.5435 99.8342 31.6918 99.8342 32.9051V52.7301H92.4242V6.32013ZM157.893 45.2551C157.893 46.1651 158.002 46.8151 158.218 47.2051C158.478 47.5951 158.955 47.7901 159.648 47.7901C159.865 47.7901 160.125 47.7901 160.428 47.7901C160.732 47.7901 161.078 47.7468 161.468 47.6601V52.7951C161.208 52.8818 160.862 52.9685 160.428 53.0551C160.038 53.1851 159.627 53.2935 159.193 53.3801C158.76 53.4668 158.327 53.5318 157.893 53.5751C157.46 53.6185 157.092 53.6401 156.788 53.6401C155.272 53.6401 154.015 53.3368 153.018 52.7301C152.022 52.1235 151.372 51.0618 151.068 49.5451C149.595 50.9751 147.775 52.0151 145.608 52.6651C143.485 53.3151 141.427 53.6401 139.433 53.6401C137.917 53.6401 136.465 53.4235 135.078 52.9901C133.692 52.6001 132.457 52.0151 131.373 51.2351C130.333 50.4118 129.488 49.3935 128.838 48.1801C128.232 46.9235 127.928 45.4718 127.928 43.8251C127.928 41.7451 128.297 40.0551 129.033 38.7551C129.813 37.4551 130.81 36.4368 132.023 35.7001C133.28 34.9635 134.667 34.4435 136.183 34.1401C137.743 33.7935 139.303 33.5335 140.863 33.3601C142.207 33.1001 143.485 32.9268 144.698 32.8401C145.912 32.7101 146.973 32.5151 147.883 32.2551C148.837 31.9951 149.573 31.6051 150.093 31.0851C150.657 30.5218 150.938 29.6985 150.938 28.6151C150.938 27.6618 150.7 26.8818 150.223 26.2751C149.79 25.6685 149.227 25.2135 148.533 24.9101C147.883 24.5635 147.147 24.3468 146.323 24.2601C145.5 24.1301 144.72 24.0651 143.983 24.0651C141.903 24.0651 140.192 24.4985 138.848 25.3651C137.505 26.2318 136.747 27.5751 136.573 29.3951H129.163C129.293 27.2285 129.813 25.4301 130.723 24.0001C131.633 22.5701 132.782 21.4218 134.168 20.5551C135.598 19.6885 137.202 19.0818 138.978 18.7351C140.755 18.3885 142.575 18.2151 144.438 18.2151C146.085 18.2151 147.71 18.3885 149.313 18.7351C150.917 19.0818 152.347 19.6451 153.603 20.4251C154.903 21.2051 155.943 22.2235 156.723 23.4801C157.503 24.6935 157.893 26.1885 157.893 27.9651V45.2551ZM150.483 35.8951C149.357 36.6318 147.97 37.0868 146.323 37.2601C144.677 37.3901 143.03 37.6068 141.383 37.9101C140.603 38.0401 139.845 38.2351 139.108 38.4951C138.372 38.7118 137.722 39.0368 137.158 39.4701C136.595 39.8601 136.14 40.4018 135.793 41.0951C135.49 41.7451 135.338 42.5468 135.338 43.5001C135.338 44.3235 135.577 45.0168 136.053 45.5801C136.53 46.1435 137.093 46.5985 137.743 46.9451C138.437 47.2485 139.173 47.4651 139.953 47.5951C140.777 47.7251 141.513 47.7901 142.163 47.7901C142.987 47.7901 143.875 47.6818 144.828 47.4651C145.782 47.2485 146.67 46.8801 147.493 46.3601C148.36 45.8401 149.075 45.1901 149.638 44.4101C150.202 43.5868 150.483 42.5901 150.483 41.4201V35.8951ZM166.062 6.32013H173.472V23.4801H173.602C174.122 22.6568 174.75 21.9201 175.487 21.2701C176.223 20.6201 177.025 20.0785 177.892 19.6451C178.802 19.1685 179.733 18.8218 180.687 18.6051C181.683 18.3451 182.658 18.2151 183.612 18.2151C186.255 18.2151 188.552 18.6918 190.502 19.6451C192.495 20.5551 194.142 21.8335 195.442 23.4801C196.742 25.0835 197.717 26.9685 198.367 29.1351C199.017 31.3018 199.342 33.6201 199.342 36.0901C199.342 38.3435 199.038 40.5318 198.432 42.6551C197.868 44.7785 196.98 46.6635 195.767 48.3101C194.597 49.9135 193.102 51.2135 191.282 52.2101C189.462 53.1635 187.317 53.6401 184.847 53.6401C183.72 53.6401 182.572 53.5535 181.402 53.3801C180.275 53.2501 179.192 52.9685 178.152 52.5351C177.112 52.1018 176.158 51.5385 175.292 50.8451C174.468 50.1518 173.775 49.2418 173.212 48.1151H173.082V52.7301H166.062V6.32013ZM191.932 35.9601C191.932 34.4435 191.737 32.9701 191.347 31.5401C190.957 30.1101 190.372 28.8535 189.592 27.7701C188.812 26.6435 187.837 25.7551 186.667 25.1051C185.497 24.4118 184.153 24.0651 182.637 24.0651C179.517 24.0651 177.155 25.1485 175.552 27.3151C173.992 29.4818 173.212 32.3635 173.212 35.9601C173.212 37.6501 173.407 39.2318 173.797 40.7051C174.23 42.1351 174.858 43.3701 175.682 44.4101C176.505 45.4501 177.48 46.2735 178.607 46.8801C179.777 47.4868 181.12 47.7901 182.637 47.7901C184.327 47.7901 185.757 47.4435 186.927 46.7501C188.097 46.0568 189.05 45.1685 189.787 44.0851C190.567 42.9585 191.108 41.7018 191.412 40.3151C191.758 38.8851 191.932 37.4335 191.932 35.9601ZM60.264 92.2601C60.264 94.0368 60.5673 95.5535 61.174 96.8101C61.7806 98.0668 62.6256 99.1068 63.709 99.9301C64.7923 100.71 66.0273 101.295 67.414 101.685C68.844 102.032 70.3823 102.205 72.029 102.205C73.8056 102.205 75.3223 102.01 76.579 101.62C77.8356 101.187 78.854 100.645 79.634 99.9951C80.414 99.3451 80.9773 98.6085 81.324 97.7851C81.6706 96.9185 81.844 96.0518 81.844 95.1851C81.844 93.4085 81.4323 92.1085 80.609 91.2851C79.829 90.4185 78.9623 89.8118 78.009 89.4651C76.3623 88.8585 74.434 88.2951 72.224 87.7751C70.0573 87.2118 67.3706 86.4968 64.164 85.6301C62.1706 85.1101 60.5023 84.4385 59.159 83.6151C57.859 82.7485 56.819 81.7951 56.039 80.7551C55.259 79.7151 54.6956 78.6101 54.349 77.4401C54.0456 76.2701 53.894 75.0785 53.894 73.8651C53.894 71.5251 54.3706 69.5101 55.324 67.8201C56.3206 66.0868 57.6206 64.6568 59.224 63.5301C60.8273 62.4035 62.6473 61.5801 64.684 61.0601C66.7206 60.4968 68.779 60.2151 70.859 60.2151C73.2856 60.2151 75.5606 60.5401 77.684 61.1901C79.8506 61.7968 81.7356 62.7285 83.339 63.9851C84.9856 65.2418 86.2856 66.8018 87.239 68.6651C88.1923 70.4851 88.669 72.6085 88.669 75.0351H80.544C80.3273 72.0451 79.309 69.9435 77.489 68.7301C75.669 67.4735 73.3506 66.8451 70.534 66.8451C69.5806 66.8451 68.6056 66.9535 67.609 67.1701C66.6123 67.3435 65.7023 67.6685 64.879 68.1451C64.0556 68.5785 63.3623 69.1851 62.799 69.9651C62.279 70.7451 62.019 71.7201 62.019 72.8901C62.019 74.5368 62.5173 75.8368 63.514 76.7901C64.554 77.7001 65.8973 78.3935 67.544 78.8701C67.7173 78.9135 68.389 79.1085 69.559 79.4551C70.7723 79.7585 72.1156 80.1051 73.589 80.4951C75.0623 80.8851 76.4923 81.2751 77.879 81.6651C79.309 82.0118 80.3273 82.2718 80.934 82.4451C82.4506 82.9218 83.7723 83.5718 84.899 84.3951C86.0256 85.2185 86.9573 86.1718 87.694 87.2551C88.474 88.2951 89.0373 89.4218 89.384 90.6351C89.774 91.8485 89.969 93.0618 89.969 94.2751C89.969 96.8751 89.4273 99.1068 88.344 100.97C87.304 102.79 85.9173 104.285 84.184 105.455C82.4506 106.625 80.479 107.47 78.269 107.99C76.059 108.553 73.8056 108.835 71.509 108.835C68.8656 108.835 66.374 108.51 64.034 107.86C61.694 107.21 59.6573 106.213 57.924 104.87C56.1906 103.527 54.804 101.815 53.764 99.7351C52.724 97.6118 52.1823 95.1201 52.139 92.2601H60.264ZM118.727 85.3701C118.424 83.2901 117.579 81.7301 116.192 80.6901C114.849 79.6068 113.137 79.0651 111.057 79.0651C110.104 79.0651 109.086 79.2385 108.002 79.5851C106.919 79.8885 105.922 80.4951 105.012 81.4051C104.102 82.2718 103.344 83.5068 102.737 85.1101C102.131 86.6701 101.827 88.7285 101.827 91.2851C101.827 92.6718 101.979 94.0585 102.282 95.4451C102.629 96.8318 103.149 98.0668 103.842 99.1501C104.579 100.233 105.511 101.122 106.637 101.815C107.764 102.465 109.129 102.79 110.732 102.79C112.899 102.79 114.676 102.118 116.062 100.775C117.492 99.4318 118.381 97.5468 118.727 95.1201H126.137C125.444 99.4968 123.776 102.855 121.132 105.195C118.532 107.492 115.066 108.64 110.732 108.64C108.089 108.64 105.749 108.207 103.712 107.34C101.719 106.43 100.029 105.217 98.6424 103.7C97.2557 102.14 96.1941 100.298 95.4574 98.1751C94.7641 96.0518 94.4174 93.7551 94.4174 91.2851C94.4174 88.7718 94.7641 86.4101 95.4574 84.2001C96.1507 81.9901 97.1907 80.0835 98.5774 78.4801C99.9641 76.8335 101.676 75.5551 103.712 74.6451C105.792 73.6918 108.219 73.2151 110.992 73.2151C112.942 73.2151 114.784 73.4751 116.517 73.9951C118.294 74.4718 119.854 75.2085 121.197 76.2051C122.584 77.2018 123.711 78.4585 124.577 79.9751C125.444 81.4918 125.964 83.2901 126.137 85.3701H118.727ZM160.306 100.255C160.306 101.165 160.414 101.815 160.631 102.205C160.891 102.595 161.367 102.79 162.061 102.79C162.277 102.79 162.537 102.79 162.841 102.79C163.144 102.79 163.491 102.747 163.881 102.66V107.795C163.621 107.882 163.274 107.968 162.841 108.055C162.451 108.185 162.039 108.293 161.606 108.38C161.172 108.467 160.739 108.532 160.306 108.575C159.872 108.618 159.504 108.64 159.201 108.64C157.684 108.64 156.427 108.337 155.431 107.73C154.434 107.123 153.784 106.062 153.481 104.545C152.007 105.975 150.187 107.015 148.021 107.665C145.897 108.315 143.839 108.64 141.846 108.64C140.329 108.64 138.877 108.423 137.491 107.99C136.104 107.6 134.869 107.015 133.786 106.235C132.746 105.412 131.901 104.393 131.251 103.18C130.644 101.923 130.341 100.472 130.341 98.8251C130.341 96.7451 130.709 95.0551 131.446 93.7551C132.226 92.4551 133.222 91.4368 134.436 90.7001C135.692 89.9635 137.079 89.4435 138.596 89.1401C140.156 88.7935 141.716 88.5335 143.276 88.3601C144.619 88.1001 145.897 87.9268 147.111 87.8401C148.324 87.7101 149.386 87.5151 150.296 87.2551C151.249 86.9951 151.986 86.6051 152.506 86.0851C153.069 85.5218 153.351 84.6985 153.351 83.6151C153.351 82.6618 153.112 81.8818 152.636 81.2751C152.202 80.6685 151.639 80.2135 150.946 79.9101C150.296 79.5635 149.559 79.3468 148.736 79.2601C147.912 79.1301 147.132 79.0651 146.396 79.0651C144.316 79.0651 142.604 79.4985 141.261 80.3651C139.917 81.2318 139.159 82.5751 138.986 84.3951H131.576C131.706 82.2285 132.226 80.4301 133.136 79.0001C134.046 77.5701 135.194 76.4218 136.581 75.5551C138.011 74.6885 139.614 74.0818 141.391 73.7351C143.167 73.3885 144.987 73.2151 146.851 73.2151C148.497 73.2151 150.122 73.3885 151.726 73.7351C153.329 74.0818 154.759 74.6451 156.016 75.4251C157.316 76.2051 158.356 77.2235 159.136 78.4801C159.916 79.6935 160.306 81.1885 160.306 82.9651V100.255ZM152.896 90.8951C151.769 91.6318 150.382 92.0868 148.736 92.2601C147.089 92.3901 145.442 92.6068 143.796 92.9101C143.016 93.0401 142.257 93.2351 141.521 93.4951C140.784 93.7118 140.134 94.0368 139.571 94.4701C139.007 94.8601 138.552 95.4018 138.206 96.0951C137.902 96.7451 137.751 97.5468 137.751 98.5001C137.751 99.3235 137.989 100.017 138.466 100.58C138.942 101.143 139.506 101.598 140.156 101.945C140.849 102.248 141.586 102.465 142.366 102.595C143.189 102.725 143.926 102.79 144.576 102.79C145.399 102.79 146.287 102.682 147.241 102.465C148.194 102.248 149.082 101.88 149.906 101.36C150.772 100.84 151.487 100.19 152.051 99.4101C152.614 98.5868 152.896 97.5901 152.896 96.4201V90.8951ZM168.279 74.1251H175.299V79.0651L175.429 79.1951C176.555 77.3318 178.029 75.8801 179.849 74.8401C181.669 73.7568 183.684 73.2151 185.894 73.2151C189.577 73.2151 192.48 74.1685 194.604 76.0751C196.727 77.9818 197.789 80.8418 197.789 84.6551V107.73H190.379V86.6051C190.292 83.9618 189.729 82.0551 188.689 80.8851C187.649 79.6718 186.024 79.0651 183.814 79.0651C182.557 79.0651 181.43 79.3035 180.434 79.7801C179.437 80.2135 178.592 80.8418 177.899 81.6651C177.205 82.4451 176.664 83.3768 176.274 84.4601C175.884 85.5435 175.689 86.6918 175.689 87.9051V107.73H168.279V74.1251Z" fill="black"/>
</svg>
